<svg width="72" height="63" viewBox="0 0 72 63" fill="none" xmlns="http://www.w3.org/2000/svg">
<path d="M67.5 27C68.7422 27 69.8027 27.4395 70.6816 28.3184C71.5605 29.1973 72 30.2578 72 31.5C72 32.7422 71.5605 33.8027 70.6816 34.6816C69.8027 35.5605 68.7422 36 67.5 36H66.9727L62.9297 59.2734C62.7422 60.3516 62.2266 61.2422 61.3828 61.9453C60.5391 62.6484 59.5781 63 58.5 63H13.5C12.4219 63 11.4609 62.6484 10.6172 61.9453C9.77344 61.2422 9.25781 60.3516 9.07031 59.2734L5.02734 36H4.5C3.25781 36 2.19727 35.5605 1.31836 34.6816C0.439453 33.8027 0 32.7422 0 31.5C0 30.2578 0.439453 29.1973 1.31836 28.3184C2.19727 27.4395 3.25781 27 4.5 27H67.5ZM17.0508 55.125C17.6602 55.0781 18.1699 54.8145 18.5801 54.334C18.9902 53.8535 19.1719 53.3086 19.125 52.6992L18 38.0742C17.9531 37.4648 17.6895 36.9551 17.209 36.5449C16.7285 36.1348 16.1836 35.9531 15.5742 36C14.9648 36.0469 14.4551 36.3105 14.0449 36.791C13.6348 37.2715 13.4531 37.8164 13.5 38.4258L14.625 53.0508C14.6719 53.6367 14.9121 54.1289 15.3457 54.5273C15.7793 54.9258 16.2891 55.125 16.875 55.125H17.0508ZM31.5 52.875V38.25C31.5 37.6406 31.2773 37.1133 30.832 36.668C30.3867 36.2227 29.8594 36 29.25 36C28.6406 36 28.1133 36.2227 27.668 36.668C27.2227 37.1133 27 37.6406 27 38.25V52.875C27 53.4844 27.2227 54.0117 27.668 54.457C28.1133 54.9023 28.6406 55.125 29.25 55.125C29.8594 55.125 30.3867 54.9023 30.832 54.457C31.2773 54.0117 31.5 53.4844 31.5 52.875ZM45 52.875V38.25C45 37.6406 44.7773 37.1133 44.332 36.668C43.8867 36.2227 43.3594 36 42.75 36C42.1406 36 41.6133 36.2227 41.168 36.668C40.7227 37.1133 40.5 37.6406 40.5 38.25V52.875C40.5 53.4844 40.7227 54.0117 41.168 54.457C41.6133 54.9023 42.1406 55.125 42.75 55.125C43.3594 55.125 43.8867 54.9023 44.332 54.457C44.7773 54.0117 45 53.4844 45 52.875ZM57.375 53.0508L58.5 38.4258C58.5469 37.8164 58.3652 37.2715 57.9551 36.791C57.5449 36.3105 57.0352 36.0469 56.4258 36C55.8164 35.9531 55.2715 36.1348 54.791 36.5449C54.3105 36.9551 54.0469 37.4648 54 38.0742L52.875 52.6992C52.8281 53.3086 53.0098 53.8535 53.4199 54.334C53.8301 54.8145 54.3398 55.0781 54.9492 55.125H55.125C55.7109 55.125 56.2207 54.9258 56.6543 54.5273C57.0879 54.1289 57.3281 53.6367 57.375 53.0508ZM16.7344 10.2656L13.4648 24.75H8.82422L12.375 9.24609C12.8203 7.18359 13.8633 5.50195 15.5039 4.20117C17.1445 2.90039 19.0195 2.25 21.1289 2.25H27C27 1.64062 27.2227 1.11328 27.668 0.667969C28.1133 0.222656 28.6406 0 29.25 0H42.75C43.3594 0 43.8867 0.222656 44.332 0.667969C44.7773 1.11328 45 1.64062 45 2.25H50.8711C52.9805 2.25 54.8555 2.90039 56.4961 4.20117C58.1367 5.50195 59.1797 7.18359 59.625 9.24609L63.1758 24.75H58.5352L55.2656 10.2656C55.0078 9.23437 54.4746 8.39062 53.666 7.73438C52.8574 7.07813 51.9258 6.75 50.8711 6.75H45C45 7.35938 44.7773 7.88672 44.332 8.33203C43.8867 8.77734 43.3594 9 42.75 9H29.25C28.6406 9 28.1133 8.77734 27.668 8.33203C27.2227 7.88672 27 7.35938 27 6.75H21.1289C20.0742 6.75 19.1426 7.07813 18.334 7.73438C17.5254 8.39062 16.9922 9.23437 16.7344 10.2656Z" fill="#F8F8F8"/>
</svg>