<svg width="22" height="22" fill="none" xmlns="http://www.w3.org/2000/svg"><path d="M11 1.833c-5.054 0-9.166 4.112-9.166 9.167 0 5.054 4.112 9.166 9.166 9.166 5.055 0 9.167-4.112 9.167-9.166 0-5.055-4.112-9.167-9.167-9.167zm0 1.375A7.781 7.781 0 0118.792 11 7.781 7.781 0 0111 18.79 7.781 7.781 0 013.208 11 7.781 7.781 0 0111 3.208zm-.24 2.282a.688.688 0 00-.676.697v5.5a.688.688 0 00.687.688h3.667a.689.689 0 00.492-1.177.688.688 0 00-.492-.198h-2.98V6.187a.687.687 0 00-.698-.697z" fill="#4BA2F2"/></svg>