<svg width="28" height="28" fill="none" xmlns="http://www.w3.org/2000/svg"><path fill-rule="evenodd" clip-rule="evenodd" d="M2.84 25.26l1.571-5.737a11.049 11.049 0 01-1.478-5.535c.003-6.105 4.97-11.071 11.075-11.071a11.006 11.006 0 017.835 3.247 11.005 11.005 0 013.24 7.833c-.002 6.104-4.97 11.072-11.075 11.072h-.004a11.064 11.064 0 01-5.293-1.349L2.84 25.26z" fill="#fff"/><path fill-rule="evenodd" clip-rule="evenodd" d="M2.84 25.552a.291.291 0 01-.281-.368l1.539-5.621a11.363 11.363 0 01-1.457-5.575C2.644 7.722 7.743 2.625 14.008 2.625a11.297 11.297 0 018.04 3.333 11.294 11.294 0 013.327 8.038c-.002 6.266-5.102 11.364-11.367 11.364-1.86 0-3.7-.46-5.334-1.328l-5.76 1.51a.267.267 0 01-.074.01z" fill="#fff"/><path fill-rule="evenodd" clip-rule="evenodd" d="M14.008 2.916a11.006 11.006 0 017.834 3.247 11.005 11.005 0 013.241 7.833c-.002 6.105-4.971 11.072-11.075 11.072h-.005a11.06 11.06 0 01-5.292-1.348l-5.872 1.54 1.572-5.737a11.05 11.05 0 01-1.479-5.536c.003-6.104 4.97-11.07 11.076-11.07zm0-.583c-6.426 0-11.656 5.228-11.66 11.654 0 1.964.496 3.9 1.436 5.613l-1.507 5.506a.582.582 0 00.71.718l5.651-1.481a11.683 11.683 0 005.365 1.309c6.43 0 11.661-5.229 11.664-11.655a11.583 11.583 0 00-3.411-8.246 11.59 11.59 0 00-8.248-3.418z" fill="#CFD8DC"/><path fill-rule="evenodd" clip-rule="evenodd" d="M20.52 7.486a9.143 9.143 0 00-6.51-2.699c-5.076 0-9.206 4.128-9.208 9.202a9.18 9.18 0 001.407 4.897l.22.349-.93 3.395 3.484-.913.336.2a9.188 9.188 0 004.685 1.282h.004c5.074 0 9.203-4.128 9.205-9.203a9.147 9.147 0 00-2.694-6.51z" fill="#40C351"/><path fill-rule="evenodd" clip-rule="evenodd" d="M11.24 9.36c-.208-.461-.426-.47-.623-.479-.162-.007-.346-.006-.53-.006-.185 0-.485.07-.739.347-.253.277-.969.946-.969 2.307 0 1.362.992 2.678 1.13 2.862.139.184 1.915 3.068 4.728 4.177 2.337.922 2.813.739 3.32.693.508-.046 1.638-.67 1.868-1.316.23-.646.23-1.2.162-1.315-.07-.116-.254-.184-.53-.323-.277-.14-1.638-.808-1.891-.9-.254-.093-.439-.139-.623.138-.185.277-.715.9-.877 1.085-.161.185-.323.208-.6.07-.276-.14-1.167-.431-2.225-1.374-.822-.733-1.377-1.64-1.54-1.916-.16-.277-.017-.427.122-.565.124-.124.277-.323.416-.485.138-.161.184-.277.276-.461.092-.185.046-.346-.023-.485s-.606-1.507-.853-2.054z" fill="#fff"/></svg>